<svg xmlns="http://www.w3.org/2000/svg" viewBox="0 0 100 100" fill="none" aria-label="AlphaMatrix Favicon">
  <defs>
    <linearGradient id="fav-gold" x1="0%" y1="100%" x2="100%" y2="0%">
      <stop offset="0%"   stop-color="#C9A56B"/>
      <stop offset="50%"  stop-color="#E8C97A"/>
      <stop offset="100%" stop-color="#F0D898"/>
    </linearGradient>
    <linearGradient id="fav-bg" x1="0%" y1="0%" x2="100%" y2="100%">
      <stop offset="0%"   stop-color="#1A1712"/>
      <stop offset="100%" stop-color="#0F0D0A"/>
    </linearGradient>
  </defs>

  <!-- Container -->
  <path d="M10 4 L90 4 Q96 4 96 10 L96 90 Q96 96 90 96 L10 96 Q4 96 4 90 L4 10 Q4 4 10 4 Z" fill="url(#fav-bg)"/>
  <path d="M10 4 L90 4 Q96 4 96 10 L96 90 Q96 96 90 96 L10 96 Q4 96 4 90 L4 10 Q4 4 10 4 Z" stroke="url(#fav-gold)" stroke-width="2" fill="none" opacity="0.8"/>

  <!-- Alpha mark — continuous intersecting loop -->
  <path d="M 75 27.5 L 62.5 50 C 50 72.5, 25 72.5, 25 50 C 25 27.5, 50 27.5, 62.5 50 L 75 72.5" stroke="url(#fav-gold)" stroke-width="7" stroke-linecap="round" fill="none"/>
</svg>